<?xml version="1.0" encoding="UTF-8"?>
<svg id="Layer_1" xmlns="http://www.w3.org/2000/svg" version="1.1" viewBox="0 0 1931.3 512">
  <!-- Generator: Adobe Illustrator 29.6.1, SVG Export Plug-In . SVG Version: 2.1.1 Build 9)  -->
  <defs>
    <style>
      .st0 {
        fill: #004e98;
      }

      .st1 {
        fill: #229283;
      }

      .st2 {
        fill: #e7594f;
      }

      .st3 {
        fill: #ff6700;
      }

      .st4 {
        fill: #c1503e;
      }

      .st5 {
        fill: #fff;
        stroke: #000;
        stroke-miterlimit: 10;
        stroke-width: 10px;
      }

      .st6 {
        fill: #ec5634;
      }

      .st7 {
        fill: #d65d42;
      }

      .st8 {
        fill: #3a6ea5;
      }

      .st9 {
        fill: #3c4753;
      }

      .st10 {
        fill: #666;
      }

      .st11 {
        fill: #3453bc;
      }

      .st12 {
        fill: silver;
      }

      .st13 {
        fill: #001524;
      }

      .st14 {
        fill: #f9c438;
      }

      .st15 {
        font-family: ArteriaStdCompress-Regular, 'Arteria Std Compress';
      }

      .st15, .st16 {
        font-size: 103.7px;
      }

      .st17 {
        fill: #b3b3b3;
      }

      .st16 {
        font-family: EixampleVilla-Regular, 'Eixample Villa';
      }

      .st18 {
        fill: #333;
      }

      .st19 {
        fill: #f7c563;
      }

      .st20 {
        fill: #afd137;
      }
    </style>
  </defs>
  <path class="st9" d="M345.4,792.9c2.2,15.5,12.5,16.8,21.9,28.4,4.8,5.9-.6,14.7-8.1,13,0,0-57.5-13-84.1-18.9s-14.8,2.7-17,10l-23.4,79.1c-1.2,3.9,3.5,7,6.7,4.4l9-10.5c5.2-6,12.3-10.2,20.2-11.3,15.7-2.2,33.5,3.1,43.3,14.6,7.5,8.7,12,20.1,12,32.6,0,19.2-10.8,35.8-26.6,44.2-4.5,2.4-12.1,4.2-20,4.9-16.3,1.6-31.5-8.1-37.3-23.5h0c-1.8-4.8-9-2.5-7.6,2.5,0,0,15.4,55.8,23.2,84,2.6,9.4,11.1,15.9,20.8,15.9h216.1c9.6,0,17.4-7.8,17.4-17.4v-206.3c0-13.5-12.5-23.6-25.7-20.8l-78.5,16.7c-7.8,1.7-13.5-7.4-8.5-13.7,10.4-13,21.7-14.5,21.7-34.5s-16.6-37.6-37.3-38c-23.7-.4-41.6,21.2-38.3,44.7Z"/>
  <path class="st6" d="M269.3,895.7c-15.5,2.2-16.8,12.5-28.4,21.9-5.9,4.8-14.7-.6-13-8.1,0,0,13-57.5,18.9-84.1,1.7-7.4-2.7-14.8-10-17l-79.1-23.4c-3.9-1.2-7,3.5-4.4,6.7l10.5,9c6,5.2,10.2,12.3,11.3,20.2,2.2,15.7-3.1,33.5-14.6,43.3-8.7,7.5-20.1,12-32.6,12-19.2,0-35.8-10.8-44.2-26.6s-4.2-12.1-4.9-20c-1.6-16.3,8.1-31.5,23.5-37.3h0c4.8-1.8,2.5-9-2.5-7.6,0,0-55.8,15.4-84,23.2-9.4,2.6-15.9,11.1-15.9,20.8v216.1c0,9.6,7.8,17.4,17.4,17.4h206.3c13.5,0,23.6-12.5,20.8-25.7l-16.7-78.5c-1.7-7.8,7.4-13.5,13.7-8.5,13,10.4,14.5,21.7,34.5,21.7s37.6-16.6,38-37.3c.4-23.7-21.2-41.6-44.7-38.3Z"/>
  <path class="st2" d="M80.7,1663.4c-8-3.1-11.4,1.4-19.5,2.8-4.2.7-6.9-4.3-4-7.4,0,0,21.8-24,31.8-35.1s2.7-7.8-.2-10.8l-31.6-32.6c-1.6-1.6-4.3-.2-3.9,2l2.6,7.1c1.5,4.1,1.5,8.7,0,12.7-3.2,8.1-10.6,15.2-18.7,16.8-6.2,1.2-12.9.3-18.9-3-9.2-5.2-14.2-14.9-14-24.7,0-2.8,1.3-6.9,3.1-10.9,3.7-8.2,12.4-12.9,21.3-11.5h0c2.8.4,3.6-3.6.9-4.3,0,0-30.9-7.7-46.5-11.6-5.2-1.3-10.6,1-13.2,5.7l-58.5,103.5c-2.6,4.6-1,10.5,3.6,13.1l98.8,55.9c6.5,3.7,14.7.4,16.9-6.7l13.3-42.1c1.3-4.2,7.2-4.5,8.9-.4,3.4,8.5,1.1,14.3,10.6,19.8,9.9,5.6,22.5,2.2,28.3-7.6,6.6-11.3,1.1-25.7-11-30.4Z"/>
  <path class="st2" d="M54.7,1588.3c.9-8.6-4.4-10.6-7.9-18.1-1.8-3.8,2.3-7.7,6.1-5.8,0,0,29,14.6,42.3,21.3,3.7,1.9,8.3.5,10.4-3.1l23.1-39.1c1.2-2-.9-4.2-3-3.2l-6.2,4.4c-3.6,2.5-7.9,3.8-12.3,3.3-8.7-.9-17.5-6.1-21.2-13.6-2.8-5.7-3.7-12.4-2.1-19,2.6-10.2,10.5-17.7,20.1-20s7-.6,11.4,0c8.9,1.3,15.7,8.6,16.8,17.5h0c.3,2.8,4.5,2.5,4.4-.3,0,0-.8-31.9-1.1-47.9-.1-5.3-3.8-9.9-9-11.2l-115.4-28.9c-5.1-1.3-10.3,1.8-11.6,7l-27.6,110.1c-1.8,7.2,3.5,14.3,10.9,14.6l44.2,1.6c4.4.2,6.2,5.8,2.7,8.4-7.3,5.5-13.5,4.8-16.2,15.5-2.8,11.1,3.9,22.3,14.8,25.3,12.6,3.4,25-5.7,26.4-18.7Z"/>
  <path class="st2" d="M121.5,1542.5c8.3-2.2,8.4-7.9,14.2-13.7,3-3,8.1-.6,7.6,3.6,0,0-3.5,32.2-5.2,47.1s2.4,7.9,6.5,8.7l44.7,7.9c2.2.4,3.6-2.3,2-3.9l-6.3-4.3c-3.6-2.5-6.3-6.1-7.4-10.3-2.2-8.4-.4-18.5,5.3-24.6,4.3-4.6,10.3-7.8,17.1-8.6,10.5-1.2,20.3,3.7,25.8,11.8,1.6,2.3,3,6.3,3.9,10.7,1.9,8.8-2.5,17.7-10.5,21.8h0c-2.5,1.3-.8,5.1,1.8,4,0,0,29.6-11.9,44.5-17.9,5-2,8-7.1,7.4-12.4l-13.3-118.2c-.6-5.3-5.3-9.1-10.6-8.5l-112.8,12.7c-7.4.8-12.2,8.3-9.8,15.3l14,41.9c1.4,4.2-3.2,7.9-7,5.5-7.7-4.9-9.3-11-20.2-9.8-11.4,1.3-19.6,11.4-18.5,22.8,1.2,13,14.1,21.4,26.8,18.2Z"/>
  <path class="st2" d="M188,1583c4.6,7.3,10,5.7,17.3,9.4,3.8,1.9,3,7.5-1.2,8.3,0,0-31.8,6.3-46.5,9.3s-6.9,4.7-6.3,8.8l5.9,45c.3,2.2,3.3,2.7,4.3.7l2.2-7.3c1.3-4.2,3.9-7.9,7.6-10.2,7.4-4.6,17.5-5.9,25.1-2.3,5.7,2.7,10.6,7.4,13.3,13.7,4.3,9.6,2.6,20.4-3.5,28.2-1.8,2.2-5.1,4.8-9,7-7.8,4.4-17.7,2.9-24-3.5h0c-2-2-5.1.8-3.3,2.9,0,0,20.2,24.6,30.4,37.1,3.4,4.1,9.1,5.5,14,3.3l108.7-48.3c4.8-2.1,7-7.8,4.9-12.7l-46.1-103.8c-3-6.8-11.5-9.1-17.6-4.7l-35.8,25.9c-3.6,2.6-8.5-.7-7.3-5,2.4-8.9,7.7-12.1,3.2-22.2-4.6-10.4-16.8-15.2-27.3-10.8s-16.2,19.9-9.3,31Z"/>
  <path class="st2" d="M168.4,1664c-5.7,6.5-2.5,11.2-4,19.3-.7,4.2-6.3,5-8.3,1.3,0,0-15.2-28.6-22.3-41.8-2-3.7-6.5-5.2-10.3-3.5l-41.4,18.7c-2.1.9-1.7,4,.6,4.4h7.6c4.4,0,8.7,1.5,12,4.3,6.6,5.7,10.7,15.1,9.5,23.3-1,6.3-4.1,12.3-9.3,16.7-8,6.9-18.8,8.4-28,4.8s-6.1-3.5-9.3-6.6c-6.5-6.2-7.9-16.1-3.6-24h0c1.4-2.5-2.2-4.6-3.8-2.3,0,0-17.8,26.5-26.7,39.8-3,4.4-2.6,10.3.9,14.4l77.6,90.1c3.5,4,9.5,4.5,13.5,1l86.1-74.1c5.6-4.9,5.4-13.7-.5-18.2l-35.2-26.8c-3.5-2.7-1.8-8.3,2.7-8.5,9.2-.3,13.8,3.9,22.2-3.3,8.7-7.5,9.7-20.5,2.4-29.2-8.3-10-23.8-9.7-32.4,0Z"/>
  <path class="st17" d="M166.6,819.6c-2.2-15.5-12.5-16.8-21.9-28.4s.6-14.7,8.1-13c0,0,57.5,13,84.1,18.9,7.4,1.7,14.8-2.7,17-10l23.4-79.1c1.2-3.9-3.5-7-6.7-4.4l-9,10.5c-5.2,6-12.3,10.2-20.2,11.3-15.7,2.2-33.5-3.1-43.3-14.6-7.5-8.7-12-20.1-12-32.6,0-19.2,10.8-35.8,26.6-44.2,4.5-2.4,12.1-4.2,20-4.9,16.3-1.6,31.5,8.1,37.3,23.5h0c1.8,4.8,9,2.5,7.6-2.5,0,0-15.4-55.8-23.2-84-2.6-9.4-11.1-15.9-20.8-15.9H17.4C7.8,550.2,0,558,0,567.7v206.3c0,13.5,12.5,23.6,25.7,20.8l78.5-16.7c7.8-1.7,13.5,7.4,8.5,13.7-10.4,13-21.7,14.5-21.7,34.5s16.6,37.6,37.3,38c23.7.4,41.6-21.2,38.3-44.7Z"/>
  <path class="st7" d="M242.7,716.8c15.5-2.2,16.8-12.5,28.4-21.9,5.9-4.8,14.7.6,13,8.1,0,0-13,57.5-18.9,84.1-1.7,7.4,2.7,14.8,10,17l79.1,23.4c3.9,1.2,7-3.5,4.4-6.7l-10.5-9c-6-5.2-10.2-12.3-11.3-20.2-2.2-15.7,3.1-33.5,14.6-43.3,8.7-7.5,20.1-12,32.6-12,19.2,0,35.8,10.8,44.2,26.6s4.2,12.1,4.9,20c1.6,16.3-8.1,31.5-23.5,37.3h0c-4.8,1.8-2.5,9,2.5,7.6,0,0,55.8-15.4,84-23.2s15.9-11.1,15.9-20.8v-216.1c0-9.6-7.8-17.4-17.4-17.4h-206.3c-13.5,0-23.6,12.5-20.8,25.7l16.7,78.5c1.7,7.8-7.4,13.5-13.7,8.5-13-10.4-14.5-21.7-34.5-21.7s-37.6,16.6-38,37.3c-.4,23.7,21.2,41.6,44.7,38.3Z"/>
  <path class="st11" d="M-203.3,792.3c2,16.1,12.4,17.2,22,29,4.8,5.9-.6,14.7-8.1,13l-97-22c0,0-.2,0-.2.1l-27.2,92c-1.2,3.9,3.5,7,6.7,4.4l8.9-10.4c5.5-6.4,13.1-10.5,21.4-11.5,15.4-1.8,32.5,3.5,42.2,14.8,7.5,8.7,12,20.1,12,32.6,0,19.2-10.8,35.8-26.6,44.2-4.5,2.4-12.1,4.2-20,4.9-16.3,1.6-31.5-8.1-37.3-23.5h0c-1.8-4.8-9-2.5-7.6,2.5l27.5,99.8h0s232.6,0,232.6,0c9.6,0,17.4-7.8,17.4-17.4v-232.6s0,0,0,0l-104.2,22.2c-7.8,1.7-13.5-7.4-8.5-13.7,10.4-13,21.7-14.5,21.7-34.5s-16.6-37.6-37.3-38-41.3,20.8-38.3,44.1Z"/>
  <path class="st2" d="M-278.7,895.6c-16.1,2-17.2,12.4-29,22s-14.7-.6-13-8.1l22-97c0,0,0-.2-.1-.2l-92-27.2c-3.9-1.2-7,3.5-4.4,6.7l10.4,8.9c6.4,5.5,10.5,13.1,11.5,21.4,1.8,15.4-3.5,32.5-14.8,42.2-8.7,7.5-20.1,12-32.6,12-19.2,0-35.8-10.8-44.2-26.6-2.4-4.5-4.2-12.1-4.9-20-1.6-16.3,8.1-31.5,23.5-37.3h0c4.8-1.8,2.5-9-2.5-7.6l-99.8,27.5h0v232.6c0,9.6,7.8,17.4,17.4,17.4h232.6s0,0,0,0l-22.2-104.2c-1.7-7.8,7.4-13.5,13.7-8.5,13,10.4,14.5,21.7,34.5,21.7s37.6-16.6,38-37.3c.4-23.5-20.8-41.3-44.1-38.3Z"/>
  <path class="st19" d="M-382,820.2c-2-16.1-12.4-17.2-22-29-4.8-5.9.6-14.7,8.1-13l97,22c0,0,.2,0,.2-.1l27.2-92c1.2-3.9-3.5-7-6.7-4.4l-8.9,10.4c-5.5,6.4-13.1,10.5-21.4,11.5-15.4,1.8-32.5-3.5-42.2-14.8s-12-20.1-12-32.6c0-19.2,10.8-35.8,26.6-44.2,4.5-2.4,12.1-4.2,20-4.9,16.3-1.6,31.5,8.1,37.3,23.5h0c1.8,4.8,9,2.5,7.6-2.5l-27.5-99.8h0s-232.6,0-232.6,0c-9.6,0-17.4,7.8-17.4,17.4v232.6s0,0,0,0l104.2-22.2c7.8-1.7,13.5,7.4,8.5,13.7-10.4,13-21.7,14.5-21.7,34.5s16.6,37.6,37.3,38,41.3-20.8,38.3-44.1Z"/>
  <path class="st10" d="M-306.5,716.9c16.1-2,17.2-12.4,29-22,5.9-4.8,14.7.6,13,8.1l-22,97c0,0,0,.2.1.2l92,27.2c3.9,1.2,7-3.5,4.4-6.7l-10.4-8.9c-6.4-5.5-10.5-13.1-11.5-21.4-1.8-15.4,3.5-32.5,14.8-42.2,8.7-7.5,20.1-12,32.6-12,19.2,0,35.8,10.8,44.2,26.6,2.4,4.5,4.2,12.1,4.9,20,1.6,16.3-8.1,31.5-23.5,37.3h0c-4.8,1.8-2.5,9,2.5,7.6l99.8-27.5h0v-232.6c0-9.6-7.8-17.4-17.4-17.4h-232.6s0,0,0,0l22.2,104.2c1.7,7.8-7.4,13.5-13.7,8.5-13-10.4-14.5-21.7-34.5-21.7s-37.6,16.6-38,37.3c-.4,23.5,20.8,41.3,44.1,38.3Z"/>
  <path class="st20" d="M-646.1,550.2h-218.8v99.3c-6.8-6.4-15.9-10.3-26-10.3-21,0-38,17-38,38s17,38,38,38,19.2-3.9,26-10.3v95.3h74c-1.3-4.4-2-9.1-2-14,0-27.6,22.4-50,50-50s50,22.4,50,50-.7,9.6-2,14h80v-218.8c0-17.3-14-31.2-31.2-31.2Z"/>
  <path class="st14" d="M-890.8,628.2c4.9,0,9.6.7,14,2v-80h-218.8c-17.3,0-31.2,14-31.2,31.2v218.8h99.4c-5.8,6.7-9.4,15.4-9.4,25,0,21,17,38,38,38s38-17,38-38-3.5-18.3-9.4-25h93.4v-74c-4.4,1.3-9.1,2-14,2-27.6,0-50-22.4-50-50s22.4-50,50-50Z"/>
  <path class="st2" d="M-850.8,895.2c-10.1,0-19.2,3.9-26,10.3v-93.3h-74c1.3,4.4,2,9.1,2,14,0,27.6-22.4,50-50,50s-50-22.4-50-50,.7-9.6,2-14h-80v218.8c0,17.3,14,31.2,31.2,31.2h218.8v-101.3c6.8,6.4,15.9,10.3,26,10.3,21,0,38-17,38-38s-17-38-38-38Z"/>
  <path class="st11" d="M-781.8,786.2c0,10.1,3.9,19.2,10.3,26h-93.3v74c4.4-1.3,9.1-2,14-2,27.6,0,50,22.4,50,50s-22.4,50-50,50-9.6-.7-14-2v80h218.8c17.3,0,31.2-14,31.2-31.2v-218.8h-101.3c6.4-6.8,10.3-15.9,10.3-26,0-21-17-38-38-38s-38,17-38,38Z"/>
  <path class="st19" d="M-911.8,1160.1h-75.2v34.1c-2.3-2.2-5.5-3.5-8.9-3.5-7.2,0-13.1,5.8-13.1,13.1s5.8,13.1,13.1,13.1,6.6-1.3,8.9-3.5v32.7h25.4c-.4-1.5-.7-3.1-.7-4.8,0-9.5,7.7-17.2,17.2-17.2s17.2,7.7,17.2,17.2-.2,3.3-.7,4.8h27.5v-75.2c0-5.9-4.8-10.7-10.7-10.7Z"/>
  <path class="st1" d="M-998.6,1187.1c2.6-.4,5.1-.2,7.4.5v-27.5h-75.2c-5.9,0-10.7,4.8-10.7,10.7v75.2h34.2c-2.3,2.6-3.5,6.1-3.2,9.8.6,6.4,6,11.5,12.4,11.8s13.7-5.6,13.7-13-1.2-6.3-3.2-8.6h32.1v-25.4c-1.5.4-3.1.7-4.8.7-10.1,0-18.1-8.6-17.1-18.9s6.8-14.1,14.5-15.3Z"/>
  <path class="st4" d="M-982.2,1278.6c-3.5,0-6.6,1.3-8.9,3.5v-32.1h-25.4c.4,1.5.7,3.1.7,4.8,0,9.5-7.7,17.2-17.2,17.2s-17.2-7.7-17.2-17.2.2-3.3.7-4.8h-27.5v75.2c0,5.9,4.8,10.7,10.7,10.7h75.2v-34.8c2.3,2.2,5.5,3.5,8.9,3.5,7.2,0,13.1-5.8,13.1-13.1s-5.8-13.1-13.1-13.1Z"/>
  <path class="st11" d="M-935.9,1250.1c2.4-2.4,3.9-5.6,3.9-9.3,0-7.2-5.8-13.1-13.1-13.1s-13.1,5.8-13.1,13.1,1.5,6.9,3.9,9.3h-32.7v25.4c1.5-.4,3.1-.7,4.8-.7,9.5,0,17.2,7.7,17.2,17.2s-7.7,17.2-17.2,17.2-3.3-.2-4.8-.7v27.5h75.2c5.9,0,10.7-4.8,10.7-10.7v-75.2h-34.8Z"/>
  <path class="st10" d="M-682.6,1448.3h-75.2v34.1c-2.3-2.2-5.5-3.5-8.9-3.5-7.2,0-13.1,5.8-13.1,13.1s5.8,13.1,13.1,13.1,6.6-1.3,8.9-3.5v32.7h25.4c-.4-1.5-.7-3.1-.7-4.8,0-9.5,7.7-17.2,17.2-17.2s17.2,7.7,17.2,17.2-.2,3.3-.7,4.8h27.5v-75.2c0-5.9-4.8-10.7-10.7-10.7Z"/>
  <path class="st14" d="M-766.7,1475.1c1.7,0,3.3.2,4.8.7v-27.5h-75.2c-5.9,0-10.7,4.8-10.7,10.7v75.2h34.2c-2,2.3-3.2,5.3-3.2,8.6,0,7.2,5.8,13.1,13.1,13.1s13.1-5.8,13.1-13.1-1.2-6.3-3.2-8.6h32.1v-25.4c-1.5.4-3.1.7-4.8.7-9.5,0-17.2-7.7-17.2-17.2s7.7-17.2,17.2-17.2Z"/>
  <path class="st4" d="M-752.9,1566.8c-3.5,0-6.6,1.3-8.9,3.5v-32.1h-25.4c.4,1.5.7,3.1.7,4.8,0,9.5-7.7,17.2-17.2,17.2s-17.2-7.7-17.2-17.2.2-3.3.7-4.8h-27.5v75.2c0,5.9,4.8,10.7,10.7,10.7h75.2v-34.8c2.3,2.2,5.5,3.5,8.9,3.5,7.2,0,13.1-5.8,13.1-13.1s-5.8-13.1-13.1-13.1Z"/>
  <path class="st11" d="M-706.6,1538.3c2.4-2.4,3.9-5.6,3.9-9.3,0-7.2-5.8-13.1-13.1-13.1s-13.1,5.8-13.1,13.1,1.5,6.9,3.9,9.3h-32.7v25.4c1.5-.4,3.1-.7,4.8-.7,9.5,0,17.2,7.7,17.2,17.2s-7.7,17.2-17.2,17.2-3.3-.2-4.8-.7v27.5h75.2c5.9,0,10.7-4.8,10.7-10.7v-75.2h-34.8Z"/>
  <path class="st10" d="M-428.7,1450.4l-75-4.7-2.2,34.1c-2.2-2.3-5.2-3.9-8.7-4.1-7.2-.5-13.4,5-13.9,12.2s5,13.4,12.2,13.9,6.7-.9,9.1-3l-2.1,32.7,25.4,1.6c-.3-1.6-.5-3.2-.4-4.8.6-9.5,8.8-16.7,18.2-16.1,9.5.6,16.7,8.8,16.1,18.2-.1,1.7-.4,3.3-1,4.8l27.4,1.7,4.7-75c.4-5.9-4.1-11-10-11.4Z"/>
  <path class="st14" d="M-536.6,1463.4c1.7,0,3.3,0,4.8.4l-1.6-27.4-75,4.2c-5.9.3-10.4,5.4-10.1,11.3l4.2,75,34.1-1.9c-1.9,2.4-2.9,5.5-2.7,8.8.4,7.2,6.6,12.7,13.8,12.3s12.7-6.6,12.3-13.8c-.2-3.3-1.6-6.2-3.7-8.4l32-1.8-1.4-25.4c-1.5.5-3.1.9-4.8,1-9.5.5-17.6-6.7-18.1-16.2-.5-9.5,6.7-17.6,16.2-18.1Z"/>
  <path class="st4" d="M-520,1575.6c-3.5,0-6.6,1.3-8.9,3.5v-32.1h-25.4c.4,1.5.7,3.1.7,4.8,0,9.5-7.7,17.2-17.2,17.2s-17.2-7.7-17.2-17.2.2-3.3.7-4.8h-27.5v75.2c0,5.9,4.8,10.7,10.7,10.7h75.2v-34.8c2.3,2.2,5.5,3.5,8.9,3.5,7.2,0,13.1-5.8,13.1-13.1s-5.8-13.1-13.1-13.1Z"/>
  <path d="M-557.2,1701.2c-2.4,2.4-3.7,5.6-3.8,8.8l-22.7-22.7-18,18c1.4.8,2.7,1.7,3.9,2.9,6.7,6.7,6.7,17.6,0,24.3-6.7,6.7-17.6,6.7-24.3,0-1.2-1.2-2.1-2.5-2.9-3.9l-19.4,19.4,53.1,53.1c4.2,4.2,11,4.2,15.2,0l53.1-53.1-24.6-24.6c3.2-.1,6.4-1.4,8.8-3.8,5.1-5.1,5.1-13.4,0-18.5-5.1-5.1-13.4-5.1-18.5,0Z"/>
  <path class="st11" d="M-458.5,1557.4c2.7-1.9,4.7-4.9,5.3-8.5,1.2-7.1-3.6-13.8-10.7-15-7.1-1.2-13.8,3.6-15,10.7-.6,3.6.3,7.1,2.3,9.8l-32.3-5.4-4.2,25.1c1.6-.2,3.2-.2,4.9.1,9.4,1.6,15.7,10.4,14.1,19.8-1.6,9.4-10.4,15.7-19.8,14.1-1.6-.3-3.2-.8-4.6-1.5l-4.5,27.1,74.1,12.3c5.8,1,11.4-3,12.4-8.8l12.3-74.1-34.3-5.7Z"/>
  <path class="st19" d="M-911.8,1450.3h-75.2v34.1c-2.3-2.2-5.5-3.5-8.9-3.5-7.2,0-13.1,5.8-13.1,13.1s5.8,13.1,13.1,13.1,6.6-1.3,8.9-3.5v32.7h25.4c-.4-1.5-.7-3.1-.7-4.8,0-9.5,7.7-17.2,17.2-17.2s17.2,7.7,17.2,17.2-.2,3.3-.7,4.8h27.5v-75.2c0-5.9-4.8-10.7-10.7-10.7Z"/>
  <path class="st1" d="M-1031,1451.1c1.7-.2,3.3-.2,4.9,0l-3.7-27.2-74.5,10.2c-5.9.8-10,6.2-9.2,12.1l10.2,74.5,33.8-4.6c-1.7,2.5-2.5,5.7-2,8.9,1,7.1,7.6,12.1,14.7,11.2s12.1-7.6,11.2-14.7c-.4-3.3-2.1-6.1-4.4-8.1l31.8-4.4-3.5-25.2c-1.5.6-3,1.1-4.7,1.3-9.4,1.3-18.1-5.3-19.4-14.7s5.3-18.1,14.7-19.4Z"/>
  <path class="st4" d="M-982.2,1568.9c-3.5,0-6.6,1.3-8.9,3.5v-32.1h-25.4c.4,1.5.7,3.1.7,4.8,0,9.5-7.7,17.2-17.2,17.2s-17.2-7.7-17.2-17.2.2-3.3.7-4.8h-27.5v75.2c0,5.9,4.8,10.7,10.7,10.7h75.2v-34.8c2.3,2.2,5.5,3.5,8.9,3.5,7.2,0,13.1-5.8,13.1-13.1s-5.8-13.1-13.1-13.1Z"/>
  <rect class="st5" x="-738.2" y="1924" width="184.4" height="184.4" rx="-184.7" ry="-184.7" transform="translate(1236.4 1047.3) rotate(45)"/>
  <path class="st11" d="M-935.9,1540.4c2.4-2.4,3.9-5.6,3.9-9.3,0-7.2-5.8-13.1-13.1-13.1s-13.1,5.8-13.1,13.1,1.5,6.9,3.9,9.3h-32.7v25.4c1.5-.4,3.1-.7,4.8-.7,9.5,0,17.2,7.7,17.2,17.2s-7.7,17.2-17.2,17.2-3.3-.2-4.8-.7v27.5h75.2c5.9,0,10.7-4.8,10.7-10.7v-75.2h-34.8Z"/>
  <g>
    <path class="st18" d="M738.9,841h44.1c-3.3,34.9-29.6,62.2-65.5,62.2h-29.8c-37.9,0-68.9-30.9-68.9-68.9v-99.3c0-38.2,30.9-69.1,68.9-69.1h29.8c36.2,0,62.2,27.6,65.5,63h-43.8c-2.5-12.3-8.4-21.7-22-21.7h-29.3c-16.2,0-26.5,13.7-26.5,30.1v94.5c0,16.4,10.3,30.1,26.5,30.1h29.3c13.4,0,19-8.9,21.7-20.9Z"/>
    <path class="st18" d="M975.9,903.2h-44.1v-99h-76.1v99h-44.3v-237.3h44.3v98.7h76.1v-98.7h44.1v237.3Z"/>
    <path class="st18" d="M1010.5,665.9h44.1v237.3h-44.1v-237.3Z"/>
    <path class="st18" d="M1132.6,747.9v155.3h-42.4v-237.3h42.4l80.6,156.7v-156.7h41.5v237.3h-41.5l-80.6-155.3Z"/>
    <path class="st18" d="M1381,665.9c38.2,0,68.6,30.9,68.6,69.1v99.3c0,11.2-2.8,21.7-7.2,30.9l30.1,37.9h-40.7l-10.6-13.1c-11.2,8.1-25.1,13.1-40.1,13.1h-27.3c-37.9,0-68.9-30.9-68.9-68.9v-99.3c0-38.2,30.9-69.1,68.9-69.1h27.3ZM1406.9,820.6v-83.4c0-16.4-10.3-30.1-26.2-30.1h-26.8c-16.2,0-26.5,13.7-26.5,30.1v94.5c0,16.4,10.3,30.1,26.5,30.1h26.8c5.6,0,10.3-1.7,14.2-4.5l-47.1-58.8h41.8l17.3,22Z"/>
  </g>
  <g>
    <path d="M-726.8,1958.5c6.6-5.1,34.2-14.9,35.2-16.6,7.1-12.2-22.5-32.9-34.7-33.5-32.5-1.6-56.9,56.4-33.4,79.4,2.6.8,4.9.5,7.3-.6,6.5-3,17.2-22.2,25.6-28.7Z"/>
    <path d="M-674.5,2007.7c-1.1-7.9-10.4-18.8-19-17.6-2.8.4-7.4,3.7-9.8,5.6-7.5,6.1-28.6,30.9-31.4,39.9-3.5,11.1-1.9,27.2,6.8,35.7,15.8,15.4,22.8-9.8,30.8-20.3,10-13.1,25.6-23.3,22.7-43.3Z"/>
    <path d="M-565.6,1908.5c-12.2.6-41.8,21.2-34.7,33.5,1,1.7,28.5,11.5,35.2,16.6,8.4,6.5,19.1,25.6,25.6,28.7,2.4,1.1,4.8,1.4,7.3.6,23.5-22.9-.9-81-33.4-79.4Z"/>
    <path d="M-588.8,1995.6c-2.4-1.9-6.9-5.2-9.8-5.6-8.7-1.2-17.9,9.7-19,17.6-2.9,20,12.7,30.2,22.7,43.3,8,10.5,15,35.6,30.8,20.3,8.7-8.5,10.3-24.6,6.8-35.7-2.8-8.9-23.9-33.7-31.4-39.9Z"/>
    <path d="M-636,2078.3c-4.1-.3-7.1,1.1-10.1,1.9-3-.8-5.9-2.2-10.1-1.9-7.1.5-19,5.6-19.8,13.8.7,3.9,15,7.6,19.3,11.2,3.6,3,6.4,10.4,10.5,11.6,4.1-1.2,6.9-8.6,10.5-11.6,4.3-3.6,18.6-7.3,19.3-11.2-.8-8.2-12.7-13.3-19.8-13.8Z"/>
  </g>
  <path class="st11" d="M-284.7,2139.6c-9.1,0-17.6-3.5-24-9.9l-89.5-89.5c-6.4-6.4-9.9-14.9-9.9-24s3.5-17.6,9.9-24l89.5-89.5c6.4-6.4,14.9-9.9,24-9.9s17.6,3.5,24,9.9l89.5,89.5c6.4,6.4,9.9,14.9,9.9,24s-3.5,17.6-9.9,24l-89.5,89.5c-6.4,6.4-14.9,9.9-24,9.9ZM-284.7,1902.8c-6.1,0-12.2,2.3-16.9,7l-89.5,89.5c-4.5,4.5-7,10.5-7,16.9s2.5,12.4,7,16.9l89.5,89.5c9.3,9.3,24.5,9.3,33.8,0l89.5-89.5c4.5-4.5,7-10.5,7-16.9s-2.5-12.4-7-16.9l-89.5-89.5c-4.7-4.7-10.8-7-16.9-7Z"/>
  <g>
    <path class="st11" d="M-313.2,2007.7c-1.1-7.9-10.4-18.8-19-17.6-2.8.4-7.4,3.7-9.8,5.6-7.5,6.1-28.6,30.9-31.4,39.9-3.5,11.1-1.9,27.2,6.8,35.7,15.8,15.4,22.8-9.8,30.8-20.3,10-13.1,25.6-23.3,22.7-43.3Z"/>
    <path class="st11" d="M-227.5,1995.6c-2.4-1.9-6.9-5.2-9.8-5.6-8.7-1.2-17.9,9.7-19,17.6-2.9,20,12.7,30.2,22.7,43.3,8,10.5,15,35.6,30.8,20.3,8.7-8.5,10.3-24.6,6.8-35.7-2.8-8.9-23.9-33.7-31.4-39.9Z"/>
    <path class="st11" d="M-274.7,2078.3c-4.1-.3-7.1,1.1-10.1,1.9-3-.8-5.9-2.2-10.1-1.9-7.1.5-19,5.6-19.8,13.8.7,3.9,15,7.6,19.3,11.2,3.6,3,6.4,10.4,10.5,11.6,4.1-1.2,6.9-8.6,10.5-11.6,4.3-3.6,18.6-7.3,19.3-11.2-.8-8.2-12.7-13.3-19.8-13.8Z"/>
  </g>
  <g>
    <path d="M-1030.1,1956.3c6.6-5.1,34.2-14.9,35.2-16.6,7.1-12.2-22.5-32.9-34.7-33.5-32.5-1.6-56.9,56.4-33.4,79.4,2.6.8,4.9.5,7.3-.6,6.5-3,17.2-22.2,25.6-28.7Z"/>
    <path d="M-977.7,2005.5c-1.1-7.9-10.4-18.8-19-17.6-2.8.4-7.4,3.7-9.8,5.6-7.5,6.1-28.6,30.9-31.4,39.9-3.5,11.1-1.9,27.2,6.8,35.7,15.8,15.4,22.8-9.8,30.8-20.3,10-13.1,25.6-23.3,22.7-43.3Z"/>
    <path d="M-868.9,1906.2c-12.2.6-41.8,21.2-34.7,33.5,1,1.7,28.5,11.5,35.2,16.6,8.4,6.5,19.1,25.6,25.6,28.7,2.4,1.1,4.8,1.4,7.3.6,23.5-22.9-.9-81-33.4-79.4Z"/>
    <path d="M-892,1993.4c-2.4-1.9-6.9-5.2-9.8-5.6-8.7-1.2-17.9,9.7-19,17.6-2.9,20,12.7,30.2,22.7,43.3,8,10.5,15,35.6,30.8,20.3,8.7-8.5,10.3-24.6,6.8-35.7-2.8-8.9-23.9-33.7-31.4-39.9Z"/>
    <path d="M-939.2,2076.1c-4.1-.3-7.1,1.1-10.1,1.9-3-.8-5.9-2.2-10.1-1.9-7.1.5-19,5.6-19.8,13.8.7,3.9,15,7.6,19.3,11.2,3.6,3,6.4,10.4,10.5,11.6,4.1-1.2,6.9-8.6,10.5-11.6,4.3-3.6,18.6-7.3,19.3-11.2-.8-8.2-12.7-13.3-19.8-13.8Z"/>
  </g>
  <path class="st11" d="M-361.7,1901.3c-20,0-36.2,16.2-36.2,36.2s11.3,30.7,26.6,34.9l44.5-44.5c-4.2-15.3-18.2-26.6-34.9-26.6Z"/>
  <path class="st11" d="M-174.2,1937.5c0-20-16.2-36.2-36.2-36.2s-30.7,11.3-34.9,26.6l44.5,44.5c15.3-4.2,26.6-18.2,26.6-34.9Z"/>
  <path class="st4" d="M346.4,2139.6c-9.1,0-17.6-3.5-24-9.9l-89.5-89.5c-6.4-6.4-9.9-14.9-9.9-24s3.5-17.6,9.9-24l89.5-89.5c6.4-6.4,14.9-9.9,24-9.9s17.6,3.5,24,9.9l89.5,89.5c6.4,6.4,9.9,14.9,9.9,24s-3.5,17.6-9.9,24l-89.5,89.5c-6.4,6.4-14.9,9.9-24,9.9ZM346.4,1902.8c-6.1,0-12.2,2.3-16.9,7l-89.5,89.5c-4.5,4.5-7,10.5-7,16.9s2.5,12.4,7,16.9l89.5,89.5c9.3,9.3,24.5,9.3,33.8,0l89.5-89.5c4.5-4.5,7-10.5,7-16.9s-2.5-12.4-7-16.9l-89.5-89.5c-4.7-4.7-10.8-7-16.9-7Z"/>
  <g>
    <path class="st4" d="M317.9,2007.7c-1.1-7.9-10.4-18.8-19-17.6-2.8.4-7.4,3.7-9.8,5.6-7.5,6.1-28.6,30.9-31.4,39.9-3.5,11.1-1.9,27.2,6.8,35.7,15.8,15.4,22.8-9.8,30.8-20.3,10-13.1,25.6-23.3,22.7-43.3Z"/>
    <path class="st4" d="M403.6,1995.6c-2.4-1.9-6.9-5.2-9.8-5.6-8.7-1.2-17.9,9.7-19,17.6-2.9,20,12.7,30.2,22.7,43.3,8,10.5,15,35.6,30.8,20.3,8.7-8.5,10.3-24.6,6.8-35.7-2.8-8.9-23.9-33.7-31.4-39.9Z"/>
    <path class="st4" d="M356.4,2078.3c-4.1-.3-7.1,1.1-10.1,1.9-3-.8-5.9-2.2-10.1-1.9-7.1.5-19,5.6-19.8,13.8.7,3.9,15,7.6,19.3,11.2,3.6,3,6.4,10.4,10.5,11.6,4.1-1.2,6.9-8.6,10.5-11.6,4.3-3.6,18.6-7.3,19.3-11.2-.8-8.2-12.7-13.3-19.8-13.8Z"/>
  </g>
  <path class="st4" d="M269.4,1901.3c-20,0-36.2,16.2-36.2,36.2s11.3,30.7,26.6,34.9l44.5-44.5c-4.2-15.3-18.2-26.6-34.9-26.6Z"/>
  <path class="st4" d="M456.9,1937.5c0-20-16.2-36.2-36.2-36.2s-30.7,11.3-34.9,26.6l44.5,44.5c15.3-4.2,26.6-18.2,26.6-34.9Z"/>
  <path d="M30.8,2139.6c-9.1,0-17.6-3.5-24-9.9l-89.5-89.5c-6.4-6.4-9.9-14.9-9.9-24s3.5-17.6,9.9-24l89.5-89.5c6.4-6.4,14.9-9.9,24-9.9s17.6,3.5,24,9.9l89.5,89.5c6.4,6.4,9.9,14.9,9.9,24s-3.5,17.6-9.9,24l-89.5,89.5c-6.4,6.4-14.9,9.9-24,9.9ZM30.8,1902.8c-6.1,0-12.2,2.3-16.9,7l-89.5,89.5c-4.5,4.5-7,10.5-7,16.9s2.5,12.4,7,16.9l89.5,89.5c9.3,9.3,24.5,9.3,33.8,0l89.5-89.5c4.5-4.5,7-10.5,7-16.9s-2.5-12.4-7-16.9l-89.5-89.5c-4.7-4.7-10.8-7-16.9-7Z"/>
  <g>
    <path d="M2.3,2007.7c-1.1-7.9-10.4-18.8-19-17.6-2.8.4-7.4,3.7-9.8,5.6-7.5,6.1-28.6,30.9-31.4,39.9-3.5,11.1-1.9,27.2,6.8,35.7,15.8,15.4,22.8-9.8,30.8-20.3,10-13.1,25.6-23.3,22.7-43.3Z"/>
    <path d="M88.1,1995.6c-2.4-1.9-6.9-5.2-9.8-5.6-8.7-1.2-17.9,9.7-19,17.6-2.9,20,12.7,30.2,22.7,43.3,8,10.5,15,35.6,30.8,20.3,8.7-8.5,10.3-24.6,6.8-35.7-2.8-8.9-23.9-33.7-31.4-39.9Z"/>
    <path d="M40.9,2096.6c-4.1-.3-7.1,1.1-10.1,1.9-3-.8-5.9-2.2-10.1-1.9-7.1.5-19,5.6-19.8,13.8.7,3.9,10.8,15.5,15.1,19.1,3.6,3,10.6,2.5,14.7,3.7,4.1-1.2,15.6-3.2,19.2-6.2,4.3-3.6,9.9-12.7,10.6-16.6-.8-8.2-12.7-13.3-19.8-13.8Z"/>
  </g>
  <path d="M-46.2,1901.3c-20,0-36.2,16.2-36.2,36.2s11.3,30.7,26.6,34.9l44.5-44.5c-4.2-15.3-18.2-26.6-34.9-26.6Z"/>
  <path d="M141.4,1937.5c0-20-16.2-36.2-36.2-36.2s-30.7,11.3-34.9,26.6l44.5,44.5c15.3-4.2,26.6-18.2,26.6-34.9Z"/>
  <text class="st15" transform="translate(-247.1 1302.8)"><tspan x="0" y="0">CHINQ</tspan></text>
  <text class="st16" transform="translate(-46.8 1212.1)"><tspan x="0" y="0">CHINQ</tspan></text>
  <path class="st0" d="M345.4,242.7c2.2,15.5,12.5,16.8,21.9,28.4,4.8,5.9-.6,14.7-8.1,13,0,0-57.5-13-84.1-18.9s-14.8,2.7-17,10l-23.4,79.1c-1.2,3.9,3.5,7,6.7,4.4l9-10.5c5.2-6,12.3-10.2,20.2-11.3,15.7-2.2,33.5,3.1,43.3,14.6,7.5,8.7,12,20.1,12,32.6,0,19.2-10.8,35.8-26.6,44.2-4.5,2.4-12.1,4.2-20,4.9-16.3,1.6-31.5-8.1-37.3-23.5h0c-1.8-4.8-9-2.5-7.6,2.5,0,0,15.4,55.8,23.2,84,2.6,9.4,11.1,15.9,20.8,15.9h216.1c9.6,0,17.4-7.8,17.4-17.4v-206.3c0-13.5-12.5-23.6-25.7-20.8l-78.5,16.7c-7.8,1.7-13.5-7.4-8.5-13.7,10.4-13,21.7-14.5,21.7-34.5s-16.6-37.6-37.3-38c-23.7-.4-41.6,21.2-38.3,44.7Z"/>
  <path class="st8" d="M269.3,345.4c-15.5,2.2-16.8,12.5-28.4,21.9-5.9,4.8-14.7-.6-13-8.1,0,0,13-57.5,18.9-84.1,1.7-7.4-2.7-14.8-10-17l-79.1-23.4c-3.9-1.2-7,3.5-4.4,6.7l10.5,9c6,5.2,10.2,12.3,11.3,20.2,2.2,15.7-3.1,33.5-14.6,43.3-8.7,7.5-20.1,12-32.6,12-19.2,0-35.8-10.8-44.2-26.6s-4.2-12.1-4.9-20c-1.6-16.3,8.1-31.5,23.5-37.3h0c4.8-1.8,2.5-9-2.5-7.6,0,0-55.8,15.4-84,23.2-9.4,2.6-15.9,11.1-15.9,20.8v216.1c0,9.6,7.8,17.4,17.4,17.4h206.3c13.5,0,23.6-12.5,20.8-25.7l-16.7-78.5c-1.7-7.8,7.4-13.5,13.7-8.5,13,10.4,14.5,21.7,34.5,21.7s37.6-16.6,38-37.3c.4-23.7-21.2-41.6-44.7-38.3Z"/>
  <path class="st3" d="M166.6,269.3c-2.2-15.5-12.5-16.8-21.9-28.4s.6-14.7,8.1-13c0,0,57.5,13,84.1,18.9,7.4,1.7,14.8-2.7,17-10l23.4-79.1c1.2-3.9-3.5-7-6.7-4.4l-9,10.5c-5.2,6-12.3,10.2-20.2,11.3-15.7,2.2-33.5-3.1-43.3-14.6-7.5-8.7-12-20.1-12-32.6,0-19.2,10.8-35.8,26.6-44.2,4.5-2.4,12.1-4.2,20-4.9,16.3-1.6,31.5,8.1,37.3,23.5h0c1.8,4.8,9,2.5,7.6-2.5,0,0-15.4-55.8-23.2-84C251.8,6.5,243.3,0,233.5,0H17.4C7.8,0,0,7.8,0,17.4v206.3c0,13.5,12.5,23.6,25.7,20.8l78.5-16.7c7.8-1.7,13.5,7.4,8.5,13.7-10.4,13-21.7,14.5-21.7,34.5s16.6,37.6,37.3,38c23.7.4,41.6-21.2,38.3-44.7Z"/>
  <path class="st12" d="M242.7,166.6c15.5-2.2,16.8-12.5,28.4-21.9,5.9-4.8,14.7.6,13,8.1,0,0-13,57.5-18.9,84.1-1.7,7.4,2.7,14.8,10,17l79.1,23.4c3.9,1.2,7-3.5,4.4-6.7l-10.5-9c-6-5.2-10.2-12.3-11.3-20.2-2.2-15.7,3.1-33.5,14.6-43.3,8.7-7.5,20.1-12,32.6-12,19.2,0,35.8,10.8,44.2,26.6s4.2,12.1,4.9,20c1.6,16.3-8.1,31.5-23.5,37.3h0c-4.8,1.8-2.5,9,2.5,7.6,0,0,55.8-15.4,84-23.2s15.9-11.1,15.9-20.8V17.4C512,7.8,504.2,0,494.6,0h-206.3c-13.5,0-23.6,12.5-20.8,25.7l16.7,78.5c1.7,7.8-7.4,13.5-13.7,8.5-13-10.4-14.5-21.7-34.5-21.7s-37.6,16.6-38,37.3c-.4,23.7,21.2,41.6,44.7,38.3Z"/>
  <g>
    <path class="st13" d="M779.8,339.1h64.8c-4.9,51.3-43.5,91.5-96.4,91.5h-43.9c-55.8,0-101.3-45.5-101.3-101.3v-146c0-56.2,45.5-101.7,101.3-101.7h43.9c53.3,0,91.5,40.6,96.4,92.7h-64.4c-3.7-18-12.3-32-32.4-32h-43.1c-23.8,0-39,20.1-39,44.3v139.1c0,24.2,15.2,44.3,39,44.3h43.1c19.7,0,27.9-13.1,32-30.8Z"/>
    <path class="st13" d="M1128.5,430.5h-64.8v-145.6h-112v145.6h-65.2V81.5h65.2v145.2h112V81.5h64.8v349.1Z"/>
    <path class="st13" d="M1179.4,81.5h64.8v349.1h-64.8V81.5Z"/>
    <path class="st13" d="M1359.1,202.1v228.5h-62.4V81.5h62.4l118.6,230.5V81.5h61.1v349.1h-61.1l-118.6-228.5Z"/>
    <path class="st13" d="M1724.6,81.5c56.2,0,100.9,45.5,100.9,101.7v146c0,16.4-4.1,32-10.7,45.5l44.3,55.8h-59.9l-15.6-19.3c-16.4,11.9-36.9,19.3-59.1,19.3h-40.2c-55.8,0-101.3-45.5-101.3-101.3v-146c0-56.2,45.5-101.7,101.3-101.7h40.2ZM1762.7,309.1v-122.7c0-24.2-15.2-44.3-38.6-44.3h-39.4c-23.8,0-39,20.1-39,44.3v139.1c0,24.2,15.2,44.3,39,44.3h39.4c8.2,0,15.2-2.5,20.9-6.6l-69.3-86.6h61.5l25.4,32.4Z"/>
  </g>
</svg>