<?xml version="1.0" encoding="UTF-8"?>
<svg id="Layer_1" data-name="Layer 1" xmlns="http://www.w3.org/2000/svg" viewBox="0 0 512 512">
  <defs>
    <style>
      .cls-1 {
        fill: #229283;
      }

      .cls-2 {
        fill: #e7594f;
      }

      .cls-3 {
        fill: #3453bc;
      }

      .cls-4 {
        fill: #f7c563;
      }
    </style>
  </defs>
  <path class="cls-3" d="M345.43,242.68c2.2,15.49,12.47,16.78,21.89,28.36,4.84,5.95-.62,14.67-8.1,12.97,0,0-57.49-12.96-84.05-18.91-7.41-1.66-14.83,2.71-16.99,9.99l-23.4,79.14c-1.17,3.95,3.49,7.02,6.66,4.38l8.97-10.46c5.18-6.04,12.32-10.19,20.2-11.31,15.7-2.24,33.47,3.1,43.35,14.61,7.51,8.75,12.05,20.12,12.05,32.55,0,19.17-10.78,35.81-26.61,44.2-4.55,2.41-12.06,4.18-20.04,4.95-16.27,1.56-31.53-8.15-37.26-23.46h0c-1.8-4.79-8.99-2.46-7.63,2.48,0,0,15.41,55.82,23.18,83.98,2.59,9.37,11.11,15.85,20.82,15.85h216.11c9.63,0,17.43-7.8,17.43-17.43v-206.29c0-13.53-12.47-23.63-25.71-20.81l-78.52,16.7c-7.84,1.67-13.52-7.43-8.5-13.68,10.43-12.96,21.72-14.48,21.72-34.49s-16.65-37.63-37.32-37.99c-23.73-.42-41.59,21.17-38.25,44.67Z"/>
  <path class="cls-2" d="M269.32,345.43c-15.49,2.2-16.78,12.47-28.36,21.89-5.95,4.84-14.67-.62-12.97-8.1,0,0,12.96-57.49,18.91-84.05,1.66-7.41-2.71-14.83-9.99-16.99l-79.14-23.4c-3.95-1.17-7.02,3.49-4.38,6.66l10.46,8.97c6.04,5.18,10.19,12.32,11.31,20.2,2.24,15.7-3.1,33.47-14.61,43.35-8.75,7.51-20.12,12.05-32.55,12.05-19.17,0-35.81-10.78-44.2-26.61-2.41-4.55-4.18-12.06-4.95-20.04-1.56-16.27,8.15-31.53,23.46-37.26h0c4.79-1.8,2.46-8.99-2.48-7.63,0,0-55.82,15.41-83.98,23.18C6.48,260.22,0,268.74,0,278.46v216.11c0,9.63,7.8,17.43,17.43,17.43h206.29c13.53,0,23.63-12.47,20.81-25.71l-16.7-78.52c-1.67-7.84,7.43-13.52,13.68-8.5,12.96,10.43,14.48,21.72,34.49,21.72s37.63-16.65,37.99-37.32c.42-23.73-21.17-41.59-44.67-38.25Z"/>
  <path class="cls-4" d="M166.57,269.32c-2.2-15.49-12.47-16.78-21.89-28.36-4.84-5.95.62-14.67,8.1-12.97,0,0,57.49,12.96,84.05,18.91,7.41,1.66,14.83-2.71,16.99-9.99l23.4-79.14c1.17-3.95-3.49-7.02-6.66-4.38l-8.97,10.46c-5.18,6.04-12.32,10.19-20.2,11.31-15.7,2.24-33.47-3.1-43.35-14.61-7.51-8.75-12.05-20.12-12.05-32.55,0-19.17,10.78-35.81,26.61-44.2,4.55-2.41,12.06-4.18,20.04-4.95,16.27-1.56,31.53,8.15,37.26,23.46h0c1.8,4.79,8.99,2.46,7.63-2.48,0,0-15.41-55.82-23.18-83.98C251.78,6.48,243.26,0,233.54,0H17.43C7.8,0,0,7.8,0,17.43v206.29c0,13.53,12.47,23.63,25.71,20.81l78.52-16.7c7.84-1.67,13.52,7.43,8.5,13.68-10.43,12.96-21.72,14.48-21.72,34.49s16.65,37.63,37.32,37.99c23.73.42,41.59-21.17,38.25-44.67Z"/>
  <path class="cls-1" d="M242.68,166.57c15.49-2.2,16.78-12.47,28.36-21.89,5.95-4.84,14.67.62,12.97,8.1,0,0-12.96,57.49-18.91,84.05-1.66,7.41,2.71,14.83,9.99,16.99l79.14,23.4c3.95,1.17,7.02-3.49,4.38-6.66l-10.46-8.97c-6.04-5.18-10.19-12.32-11.31-20.2-2.24-15.7,3.1-33.47,14.61-43.35,8.75-7.51,20.12-12.05,32.55-12.05,19.17,0,35.81,10.78,44.2,26.61,2.41,4.55,4.18,12.06,4.95,20.04,1.56,16.27-8.15,31.53-23.46,37.26h0c-4.79,1.8-2.46,8.99,2.48,7.63,0,0,55.82-15.41,83.98-23.18,9.37-2.59,15.85-11.11,15.85-20.82V17.43C512,7.8,504.2,0,494.57,0h-206.29c-13.53,0-23.63,12.47-20.81,25.71l16.7,78.52c1.67,7.84-7.43,13.52-13.68,8.5-12.96-10.43-14.48-21.72-34.49-21.72s-37.63,16.65-37.99,37.32c-.42,23.73,21.17,41.59,44.67,38.25Z"/>
</svg>